<?xml version="1.0" encoding="UTF-8"?><svg id="Layer_2" xmlns="http://www.w3.org/2000/svg" viewBox="0 0 636.99 158.96"><defs><style>.cls-1{fill:#fff;}.cls-2{fill:#ffe600;}.cls-3{fill:#fff380;}.cls-4{fill:#e8e7da;}.cls-5{fill:#4d4100;}</style></defs><g id="Layer_1-2"><path class="cls-5" d="M315.15,80.22c-1.73-2.17-3.78-3.82-6.15-4.96-2.37-1.14-5.45-2.33-9.24-3.58-3.79-1.19-6.58-2.31-8.36-3.33-1.79-1.03-2.68-2.47-2.68-4.31,0-1.68.53-2.97,1.59-3.86,1.06-.89,2.46-1.34,4.18-1.34,2.01,0,3.65.53,4.93,1.59l-1.17.59,3.26,3.77h15.47c-.28-5.37-2.4-9.56-6.36-12.57-3.96-3.01-9.28-4.51-15.64-4.51s-11.51,1.5-15.47,4.51c-3.96,3.01-5.94,7.17-5.94,12.48,0,3.58.87,6.48,2.59,8.7,1.73,2.23,3.79,3.9,6.19,5.04,2.4,1.14,5.49,2.28,9.28,3.42,2.62.76,4.64,1.43,6.06,2.03,1.42.6,2.62,1.35,3.6,2.28s1.46,2.09,1.46,3.5c0,1.68-.62,3-1.84,3.94-1.22.95-2.96,1.42-5.02,1.42s-3.73-.56-5.02-1.67c-1.28-1.11-2.04-2.72-2.26-4.84l-3.26-3.77-11.96,3.77c.11,3.74,1.18,6.94,3.22,9.6,2.04,2.65,4.76,4.67,8.15,6.02,3.4,1.35,7.14,2.03,11.54,2.03s8.23-.78,11.46-2.36c3.23-1.57,5.7-3.69,7.4-6.34,1.7-2.65,2.55-5.45,2.55-8.86s-.87-6.21-2.59-8.38Z"/><path class="cls-5" d="M390.5,40.45c-2.49,0-4.56.71-6.14,2.17-1.33,1.2-2.07,2.65-2.3,4.36l8.99-6.5c-.16-.03-.36-.03-.55-.03Z"/><path class="cls-5" d="M398.97,48.02c0,2.17-.81,3.88-2.39,5.33-1.58,1.42-3.62,2.13-6.08,2.13s-4.56-.71-6.14-2.13c-.26-.23-.49-.49-.71-.74l-3.59-4.17,2-1.45,8.99-6.5,2.26-1.65,3.27,3.78c1.58,1.42,2.39,3.23,2.39,5.4Z"/><path class="cls-5" d="M546.34,48.02c0,2.17-.81,3.88-2.39,5.33-1.58,1.42-3.62,2.13-6.08,2.13s-4.56-.71-6.14-2.13c-.26-.23-.49-.49-.71-.74l-3.59-4.17,2-1.45,8.99-6.5,2.26-1.65,3.27,3.78c1.58,1.42,2.39,3.23,2.39,5.4Z"/><path class="cls-5" d="M373.07,70.56c-1.81-3.52-4.27-6.24-7.4-8.15-3.14-1.91-6.6-2.85-10.44-2.85-3.3,0-6.18.65-8.63,1.94-2.46,1.33-4.36,3.04-5.76,5.14v-6.43l-3.27-3.75-11.06,3.75-3.23,63.27,3.23,3.75h14.32v-27.97c1.39,2.04,3.33,3.72,5.82,5.04,2.46,1.29,5.33,1.94,8.57,1.94,3.85,0,7.31-.97,10.44-2.88,3.14-1.94,5.59-4.69,7.4-8.21,1.81-3.56,2.72-7.66,2.72-12.32s-.91-8.76-2.72-12.29ZM358.23,91.09c-2,2.04-4.43,3.04-7.27,3.04s-5.27-1-7.24-3.01-2.97-4.75-2.97-8.21,1-6.21,2.97-8.21,4.33-3.01,7.24-3.01,5.33.97,7.31,2.97c1.97,1.97,2.97,4.69,2.97,8.18s-1,6.21-3.01,8.24Z"/><path class="cls-5" d="M518.63,82.32l3.27,3.75c-1.68,6.18-4.98,11.06-9.96,14.61-4.95,3.52-10.93,5.3-17.88,5.3-5.69,0-10.8-1.23-15.26-3.69-4.49-2.46-7.99-5.88-10.51-10.28-2.52-4.4-3.75-9.41-3.75-15.07s1.23-10.64,3.75-15.07c2.52-4.43,6.01-7.86,10.51-10.35,4.46-2.46,9.57-3.69,15.26-3.69,6.95,0,12.93,1.78,17.88,5.37,4.98,3.59,8.28,8.44,9.96,14.65h-15.71c-1.49-2.78-3.27-3.78-3.27-3.78l.36-.13c-.65-.61-1.33-1.1-2.07-1.55-2.13-1.26-4.59-1.88-7.31-1.88-4.43,0-7.99,1.49-10.73,4.49-2.72,2.97-4.07,6.95-4.07,11.93s1.36,8.99,4.07,11.96c2.75,2.97,6.3,4.49,10.73,4.49,2.72,0,5.17-.65,7.31-1.88,2.13-1.26,3.82-3.07,4.98-5.46l12.45-3.75Z"/><polygon class="cls-5" points="544.98 60.21 544.98 105.6 530.69 105.6 527.42 101.82 530.69 60.21 541.71 56.46 544.98 60.21"/><path class="cls-5" d="M581.35,93.8v11.8h-7.27c-5.17,0-9.21-1.23-12.12-3.72-2.88-2.46-4.33-6.47-4.33-12.06v-18.07h-5.69l-3.27-3.75,3.27-7.79h5.69v-11.06l11.03-3.75,3.27,3.75v11.06l6.11-3.75,3.27,3.75v11.54h-9.38v18.23c0,1.36.36,2.33,1,2.91.61.55,5.21-2.85,5.21-2.85l3.23,3.75Z"/><polygon class="cls-5" points="397.61 60.21 397.61 105.6 383.32 105.6 380.05 101.82 383.32 60.21 394.34 56.46 397.61 60.21"/><path class="cls-5" d="M454.42,79.09v26.51h-14.23l-3.27-3.78,3.27-20.85c0-3.04-.81-5.4-2.42-7.08s-3.78-2.52-6.53-2.52-4.88.84-6.53,2.52c-1.62,1.68-2.42,4.04-2.42,7.08v24.64h-14.29l-3.27-3.78,3.27-41.61,11.06-3.75,3.23,3.75v6.01c1.45-2,3.43-3.59,5.88-4.75,2.42-1.16,5.21-1.75,8.28-1.75,5.46,0,9.83,1.71,13.06,5.17,3.27,3.43,4.91,8.18,4.91,14.19Z"/><polygon class="cls-5" points="636.99 60.21 607.7 127.14 592.31 127.14 589.05 123.39 595.55 120.15 603.01 104.05 584.04 60.21 596.74 56.46 600.01 60.21 610.81 88.6 621.51 60.21 633.73 56.46 636.99 60.21"/><path class="cls-4" d="M281.53,100.37c-3.4-1.35-6.12-3.36-8.15-6.02-2.04-2.65-3.11-5.86-3.22-9.6h15.22c.22,2.11.97,3.73,2.26,4.84,1.28,1.11,2.96,1.67,5.02,1.67s3.79-.48,5.02-1.42c1.22-.95,1.84-2.27,1.84-3.94,0-1.41-.49-2.57-1.46-3.5-.97-.92-2.17-1.68-3.6-2.28-1.42-.6-3.44-1.27-6.06-2.03-3.79-1.14-6.89-2.28-9.28-3.42-2.4-1.14-4.46-2.82-6.19-5.04-1.73-2.23-2.59-5.12-2.59-8.7,0-5.32,1.98-9.48,5.94-12.48,3.96-3.01,9.12-4.51,15.47-4.51s11.68,1.5,15.64,4.51c3.96,3.01,6.08,7.2,6.36,12.57h-15.47c-.11-1.84-.81-3.29-2.09-4.35-1.28-1.06-2.93-1.59-4.93-1.59-1.73,0-3.12.45-4.18,1.34-1.06.89-1.59,2.18-1.59,3.86,0,1.84.89,3.28,2.68,4.31,1.79,1.03,4.57,2.14,8.36,3.33,3.79,1.25,6.87,2.44,9.24,3.58,2.37,1.14,4.42,2.79,6.15,4.96s2.59,4.96,2.59,8.38-.85,6.21-2.55,8.87c-1.7,2.65-4.17,4.77-7.4,6.34-3.23,1.57-7.06,2.36-11.46,2.36s-8.14-.68-11.54-2.03Z"/><path class="cls-4" d="M343.34,57.75c2.45-1.3,5.32-1.95,8.61-1.95,3.85,0,7.33.95,10.46,2.85,3.12,1.9,5.59,4.61,7.4,8.13,1.81,3.53,2.72,7.62,2.72,12.28s-.91,8.77-2.72,12.32c-1.81,3.55-4.28,6.29-7.4,8.21-3.13,1.92-6.61,2.89-10.46,2.89-3.23,0-6.09-.65-8.57-1.95-2.48-1.3-4.42-2.98-5.81-5.04v27.98h-14.3V56.45h14.3v6.42c1.39-2.11,3.31-3.82,5.77-5.12ZM355,70.89c-1.98-1.98-4.42-2.97-7.32-2.97s-5.26,1-7.24,3.01c-1.98,2-2.97,4.75-2.97,8.21s.99,6.21,2.97,8.21c1.98,2,4.39,3.01,7.24,3.01s5.27-1.02,7.27-3.05c2.01-2.03,3.01-4.79,3.01-8.26s-.99-6.19-2.97-8.17Z"/><path class="cls-4" d="M381.1,49.58c-1.59-1.43-2.38-3.21-2.38-5.33s.8-3.97,2.38-5.41c1.59-1.43,3.64-2.16,6.15-2.16s4.47.72,6.06,2.16c1.59,1.43,2.38,3.24,2.38,5.41s-.79,3.89-2.38,5.33c-1.59,1.43-3.61,2.16-6.06,2.16s-4.56-.72-6.15-2.16ZM394.36,56.45v45.38h-14.3v-45.38h14.3Z"/><path class="cls-4" d="M446.25,61.13c3.26,3.44,4.89,8.17,4.89,14.19v26.51h-14.22v-24.64c0-3.04-.81-5.4-2.42-7.08-1.62-1.68-3.8-2.52-6.52-2.52s-4.9.84-6.52,2.52c-1.62,1.68-2.42,4.04-2.42,7.08v24.64h-14.3v-45.38h14.3v6.02c1.45-2,3.4-3.59,5.86-4.76,2.45-1.17,5.22-1.75,8.28-1.75,5.46,0,9.83,1.72,13.09,5.16Z"/><path class="cls-2" d="M465.03,58.12c2.51-4.42,6.01-7.86,10.49-10.33,4.49-2.47,9.58-3.7,15.26-3.7,6.97,0,12.94,1.79,17.9,5.37,4.97,3.58,8.28,8.46,9.95,14.64h-15.73c-1.17-2.39-2.83-4.2-4.98-5.45-2.14-1.25-4.59-1.87-7.32-1.87-4.4,0-7.98,1.49-10.71,4.47-2.73,2.98-4.1,6.97-4.1,11.96s1.37,8.98,4.1,11.96c2.73,2.98,6.3,4.47,10.71,4.47,2.73,0,5.17-.62,7.32-1.87,2.14-1.25,3.81-3.06,4.98-5.45h15.73c-1.67,6.18-4.99,11.05-9.95,14.6-4.96,3.55-10.92,5.33-17.9,5.33-5.69,0-10.78-1.23-15.26-3.7-4.48-2.47-7.99-5.9-10.49-10.29-2.51-4.39-3.76-9.41-3.76-15.05s1.25-10.67,3.76-15.09Z"/><path class="cls-2" d="M528.46,49.58c-1.59-1.43-2.38-3.21-2.38-5.33s.8-3.97,2.38-5.41c1.59-1.43,3.64-2.16,6.15-2.16s4.47.72,6.06,2.16c1.59,1.43,2.38,3.24,2.38,5.41s-.79,3.89-2.38,5.33c-1.59,1.43-3.61,2.16-6.06,2.16s-4.56-.72-6.15-2.16ZM541.72,56.45v45.38h-14.3v-45.38h14.3Z"/><path class="cls-2" d="M578.1,90.04v11.79h-7.27c-5.19,0-9.23-1.23-12.13-3.7-2.9-2.47-4.35-6.49-4.35-12.08v-18.06h-5.69v-11.55h5.69v-11.06h14.3v11.06h9.37v11.55h-9.37v18.22c0,1.35.34,2.33,1.01,2.93.67.6,1.78.89,3.34.89h5.1Z"/><path class="cls-2" d="M633.72,56.45l-29.27,66.94h-15.39l10.71-23.1-18.99-43.84h15.98l10.79,28.38,10.71-28.38h15.47Z"/><path class="cls-1" d="M311.82,76.39c-14.91-2.59-28.48-5.76-40.48-9.44-.68-1.75-1.03-3.75-1.03-6.05,0-5.3,1.97-9.47,5.95-12.48,3.94-3.01,9.12-4.49,15.45-4.49s11.7,1.49,15.65,4.49c3.98,3.01,6.08,7.21,6.37,12.58h-15.49c-.1-1.84-.81-3.3-2.1-4.36-1.26-1.03-2.91-1.58-4.91-1.58-1.75,0-3.14.45-4.2,1.36-1.03.91-1.58,2.17-1.58,3.85,0,1.84.91,3.3,2.68,4.33,1.78,1,4.56,2.13,8.37,3.33,3.78,1.23,6.85,2.42,9.25,3.59,2.33,1.13,4.36,2.75,6.08,4.88Z"/><path class="cls-1" d="M369.79,66.79c-1.81-3.52-4.27-6.24-7.4-8.15-3.1-1.91-6.6-2.85-10.44-2.85-3.3,0-6.18.65-8.63,1.94-2.46,1.33-4.36,3.01-5.76,5.14v-6.43h-14.29v21.76c4.62.68,9.38,1.29,14.23,1.88-.03-.29-.03-.61-.03-.94,0-3.46,1-6.21,2.97-8.21s4.33-3.01,7.24-3.01,5.33.97,7.31,2.97c1.97,1.97,2.97,4.69,2.97,8.15,0,1.07-.1,2.07-.29,3.01,4.79.39,9.63.74,14.58,1.03.16-1.29.26-2.65.26-4.04,0-4.66-.91-8.73-2.72-12.25Z"/><path class="cls-1" d="M380.04,56.45v27.03c4.69.19,9.44.36,14.29.48v-27.51h-14.29ZM393.3,38.86c-1.58-1.45-3.56-2.17-6.05-2.17s-4.56.71-6.18,2.17c-1.58,1.42-2.36,3.27-2.36,5.4s.78,3.88,2.36,5.33c1.62,1.42,3.72,2.13,6.18,2.13s4.46-.71,6.05-2.13c1.58-1.45,2.39-3.17,2.39-5.33s-.81-3.98-2.39-5.4Z"/><path class="cls-1" d="M451.14,75.33v7.76c-4.79.26-9.54.48-14.23.61v-6.5c0-3.04-.81-5.4-2.42-7.08-1.62-1.68-3.78-2.52-6.53-2.52s-4.88.84-6.5,2.52c-1.65,1.68-2.42,4.04-2.42,7.08v6.92c-4.82.06-9.6.06-14.32,0v-27.68h14.32v6.01c1.42-2,3.39-3.59,5.85-4.75s5.21-1.75,8.28-1.75c5.46,0,9.83,1.71,13.09,5.17,3.23,3.43,4.88,8.18,4.88,14.19Z"/><path class="cls-3" d="M518.62,64.11h-15.71c-1.16-2.39-2.85-4.2-4.98-5.46-2.13-1.26-4.59-1.88-7.31-1.88-4.4,0-7.99,1.49-10.7,4.49-2.75,2.97-4.11,6.95-4.11,11.93,0,3.07.52,5.75,1.55,8.05-4.88.45-9.83.84-14.84,1.16-.84-2.85-1.26-5.92-1.26-9.21,0-5.63,1.26-10.67,3.75-15.07,2.52-4.43,6.01-7.86,10.51-10.35,4.49-2.46,9.57-3.69,15.26-3.69,6.98,0,12.93,1.78,17.88,5.37,4.98,3.56,8.31,8.44,9.96,14.65Z"/><path class="cls-3" d="M527.41,56.45v18.69c4.85-.74,9.6-1.55,14.29-2.42v-16.26h-14.29ZM540.67,38.86c-1.58-1.45-3.56-2.17-6.08-2.17s-4.56.71-6.14,2.17c-1.58,1.42-2.36,3.27-2.36,5.4s.78,3.88,2.36,5.33c1.58,1.42,3.69,2.13,6.14,2.13s4.49-.71,6.08-2.13c1.58-1.45,2.39-3.17,2.39-5.33s-.81-3.98-2.39-5.4Z"/><path class="cls-3" d="M578.01,56.45v8.47c-7.6,1.91-15.49,3.69-23.67,5.37v-2.3h-5.69v-11.54h5.69v-11.06h14.29v11.06h9.38Z"/><path class="cls-3" d="M597.86,59.45c-4.56,1.36-9.25,2.68-14.06,3.98l-3.04-6.98h15.97l1.13,3.01Z"/><path class="cls-5" d="M202.63,85.71c.55-1.45,1.2-3.36,1.03-3.56-.26-.32-7.05-4.4-7.05-4.4l.1,5.11c4.56,4.49,4.04,11.64.39,17.33-2.17,3.14-4.14,5.5-6.14,7.4l-15.97-4.86v-4.76l11.6,3.47,4.4-3.72v-.23l-16-4.89v-4.76l11.6,3.47,4.4-3.72v-.23l-16-4.89v-4.76l11.6,3.47,4.4-3.72v-.23l-16-4.89v-4.76l11.6,3.47,4.4-3.72v-.23l-16-4.89v-4.76l11.6,3.47,4.4-3.72v-.23l-16-4.89v-4.76l11.6,3.47,4.4-3.72v-.23l-16-4.89v-4.58c4.96,1.33,10.02,2.51,10.02,2.51l4.11-3.43s-21.03-7.56-21.08-7.57c-.16,0-1.75,2.39-2.33,4.04-5.14,1.26-10.06,2.55-15.23,3.82,0,0-.42-1.94-1-4.66l2.23-.52v-11.87l-5.17-1.62c-.55-2.68-.94-4.79-.94-5.33.1,0,4.17-3.39,4.17-3.39,0,0-21.02-7.27-21.11-7.27-.06,0-.26,1.94-.45,3.72-7.21,1.78-14.42,3.52-21.66,5.33v33.79h-.1v3.2c-5.3-1.29-10.6-2.62-15.94-3.91-.06-.84-.26-2.88-.26-2.88l-19.69,6.92,2.94,3.85-4.95,6.6v74.91c-6.56-1.84-12.25-5.11-12.8-10.67-.61-6.27,2.2-11.77,6.3-16.59v-5.08l-4.07,3.94s-9.76,12.9-11.96,16.88c-.42.78-.78,1.62-1.07,2.46-1.88,5.21-1.03,9.99,3.3,13.58,2.78,2.3,6.14,4.2,9.54,5.53,8.99,3.56,18.53,4.33,28.1,4.43,19.14.23,37.89-2.68,56.29-7.69,15.78-4.27,30.94-9.86,44.88-18.3.65-.36,1.26-.78,1.91-1.16.71-.45,1.42-.91,2.1-1.36,6.08-4.01,11.7-8.57,15.55-14.87,4.72-7.63,2.59-14.68-3.98-19.08ZM182.03,113.8c-.52.26-1.07.45-1.62.71l-5.43-1.66v-4.76l11.15,3.37c-1.29.84-2.65,1.58-4.11,2.33Z"/><path class="cls-5" d="M26.52,76c2.32,5.02,6.25,10.44,12.67,10.85.5,1.21,1.55,2.94,3.26,3.77-6.63,3.18-11.54,8.14-14.7,14.98-.57-1.36-1.83-2.89-3.26-3.77,0-2.55-1.24-3.54-2.75-5.08-2.53-2.56.12-6.46-3.2-7.9,6.7-3.21,4.26-6.18,7.4-12.96l.58.11Z"/><path class="cls-5" d="M8.5,108.93c.91,2.59,3.75,4.93,6.19,5.55,1.05,2.41,1.88,2.9,3.26,3.77-3.32,2.09-5.77,5.34-7.35,9.83-.7-2.21-1.92-2.93-3.26-3.77,0-1.87-.64-5.98-2.3-6.93,3.35-2.11.22-3.85,1.79-8.29l1.66-.16Z"/><path class="cls-5" d="M232.47,65.67c-2.49,1-4.62,2.52-6.5,4.36-1.91,1.81-3.46,3.88-4.53,6.3-.55-1.68-1.52-2.68-3.27-3.78.1-1.71.26-3.36.1-4.82,3.04-2.17,5.92-4.4,8.63-6.66l2.33.81c.52,1.88,1.58,2.85,3.23,3.78Z"/><path class="cls-5" d="M222.32,83.01s9.19,6.67,7.38,25.06c-1.81,18.38-32.76,32.27-54.25,38.8-21.49,6.52-22.66,6.65-22.66,6.65,0,0-.8-1.99-3.26-3.77,10.82-3.49,65.52-17.35,74.02-39.49,3.84-9.99,2.46-16.2-1.23-27.25h0Z"/><path class="cls-5" d="M40.01,107.57s-4.8,6.42-7.6,15.77c-2.24,7.48-.7,21.06,7.95,27.47,12.49,9.25,44.86,8.5,51.46,7.74-1.42-1-1.68-1.17-3.26-3.77-16.68,3.38-38.44-.07-48.01-9.58-5.7-5.66-6.12-17.59,2.81-33.83l-3.35-3.8Z"/><polygon class="cls-2" points="24.51 71.93 24.51 71.94 24.51 71.93 24.51 71.93"/><path class="cls-2" d="M39.18,86.85c-6.65-3.18-11.54-8.15-14.68-14.92-3.14,6.78-8.03,11.74-14.73,14.95,3.32,1.44,6.17,3.54,8.69,6.11,2.53,2.57,4.6,5.47,6.02,8.84,3.16-6.84,8.07-11.8,14.7-14.98Z"/><polygon class="cls-2" points="7.36 104.68 7.36 104.69 7.37 104.68 7.36 104.68"/><path class="cls-2" d="M7.36,104.69c-1.57,4.44-4.02,7.7-7.36,9.8,1.65.95,3.08,2.32,4.34,4.01s2.3,3.59,3.01,5.8c1.58-4.48,4.03-7.74,7.35-9.83-3.32-2.08-5.77-5.35-7.33-9.79Z"/><path class="cls-2" d="M218.18,72.56c1.06-2.41,2.61-4.48,4.52-6.31,1.9-1.83,4.03-3.33,6.52-4.36-5.02-2.29-8.7-5.84-11.05-10.68h0c-2.35,4.83-6.02,8.39-11.01,10.66,4.97,2.27,8.66,5.82,11.03,10.7Z"/><path class="cls-2" d="M219.05,79.24h0s0,0,0,0c3.69,11.04,5.07,17.25,1.23,27.25-9.56,24.89-70.75,43.26-70.75,43.26,0,0,1.17-.13,22.66-6.65,21.49-6.53,52.44-20.42,54.25-38.8,1.82-18.38-7.38-25.06-7.38-25.06Z"/><path class="cls-2" d="M40.01,107.57s0,.01,0,.02c0,0,.01-.02.01-.02h0Z"/><path class="cls-2" d="M37.29,141.44c-5.7-5.66-6.21-17.62,2.71-33.85-.31.34-22.22,25.14-2.9,39.45,12.49,9.25,35.02,11.27,51.46,7.74-4.46.55-32.84,4.98-51.27-13.34Z"/><polygon class="cls-2" points="73.41 52.16 73.41 132.4 68.46 132.4 68.46 53.68 73.41 52.16"/><polygon class="cls-2" points="86.54 131.92 86.54 133.7 77.94 132.53 77.94 50.8 84.79 48.7 84.79 131.92 86.54 131.92"/><polygon class="cls-2" points="137.88 10.48 135.59 9.77 135.59 9.78 133.68 9.19 133.68 128.49 138.91 128.49 138.91 128.43 141.05 128.43 141.05 11.45 138.92 10.8 137.88 10.48"/><polygon class="cls-2" points="145.61 12.84 145.61 28.04 151.72 26.58 151.72 14.72 145.61 12.84"/><path class="cls-2" d="M206.52,99.68c-3.85,6.3-9.47,10.86-15.55,14.87-.68.45-1.39.91-2.1,1.36-.65.39-1.26.81-1.91,1.16-13.93,8.44-29.1,14.03-44.88,18.3-18.4,5.01-37.15,7.92-56.29,7.69-9.57-.1-19.11-.87-28.1-4.43-3.39-1.33-6.76-3.23-9.54-5.53-4.33-3.59-5.17-8.37-3.3-13.58.29-.84.65-1.68,1.07-2.46,3.75-6.79,9.73-11.45,16.04-15.75-4.11,4.82-6.92,10.31-6.3,16.59,1.33,13.19,31.23,13.42,33.66,12.67V42.58c-6.4,1.94-12.61,3.85-18.85,5.72-.03-.1-.1-.23-.13-.36,5.69-2.97,11.41-5.95,17.14-8.86.61-.29,1.52-.23,2.23-.06,7.4,1.81,14.78,3.72,22.21,5.43,1.71.39,2.04,1.2,2.04,2.75-.03,26.45-.03,52.93-.03,79.37v2.88c1.16-.16,3.08-.53,4.49-.77v-2.17c0-27-.03-53.64.06-80.6,0-2.39-.74-3.52-3.1-4.11-2.65-.74-6.37-1.23-8.92-1.88V6.11c8.24-2.04,16.42-4.04,24.64-6.05.55-.13,1.26-.06,1.71.16,5.76,2.94,11.48,5.92,17.04,9.25-6.21-1.91-14.2-4.17-20.7-6.17v122.89c1.58.39,16.11-2.78,16.34-2.72.1-.81.16-65.47.1-88.2,0-1.88.61-2.55,2.39-2.97,7.27-1.68,13.76-3.49,21.04-5.21.87-.19,2.04-.16,2.81.23,5.85,2.94,11.61,5.95,17.3,9.21-6.47-1.97-12.93-3.98-19.66-6.01v83.16c1-.36,1.97-.71,2.94-1.03,3.36-1.2,6.5-2.39,9.54-3.94,5.66-2.81,9.88-6.07,15.05-13.6,3.65-5.69,4.18-12.84-.38-17.34,10.93,3.65,15.84,12.32,9.89,21.92Z"/><polygon class="cls-2" points="191.01 41.84 191.01 47.14 174 42 174 36.64 191.01 41.84"/><polygon class="cls-2" points="191.01 51.96 191.01 57.26 174 52.12 174 46.76 191.01 51.96"/><polygon class="cls-2" points="191.01 62.08 191.01 67.38 174 62.24 174 56.88 191.01 62.08"/><polygon class="cls-2" points="191.01 72.2 191.01 77.5 174 72.36 174 67 191.01 72.2"/><polygon class="cls-2" points="191.01 82.32 191.01 87.62 174 82.48 174 77.12 191.01 82.32"/><polygon class="cls-2" points="191.01 92.44 191.01 97.74 174 92.6 174 87.24 191.01 92.44"/><polygon class="cls-2" points="191.01 102.56 191.01 107.86 174 102.72 174 97.36 191.01 102.56"/><polygon class="cls-2" points="182.31 110.03 182.31 116.01 174 113.49 174 107.47 182.31 110.03"/><path class="cls-3" d="M73.41,52.15v38.67c-1.65-.1-3.3-.19-4.95-.32v-36.83l4.95-1.52Z"/><path class="cls-3" d="M84.79,91.24c-2.3-.03-4.59-.1-6.85-.19v-40.25l6.85-2.1v42.55Z"/><path class="cls-3" d="M141.05,11.45v75.88c-2.42.42-4.88.78-7.37,1.1V9.18l1.91.58,2.3.71,1.03.32,2.13.65Z"/><polygon class="cls-3" points="145.62 12.84 145.62 28.04 151.73 26.58 151.73 14.71 145.62 12.84"/><path class="cls-3" d="M113.95,47.21c-.03,14.42-.03,28.84-.03,43.26-1.71.13-3.43.23-5.14.32-6.6.36-13.09.52-19.46.52v-48.72c-6.4,1.94-12.61,3.85-18.85,5.72-.03-.1-.1-.23-.13-.36,5.69-2.97,11.41-5.95,17.14-8.86.61-.29,1.52-.23,2.23-.06,7.4,1.81,14.78,3.72,22.21,5.43,1.71.39,2.04,1.2,2.04,2.75Z"/><path class="cls-3" d="M149.84,9.47c-6.21-1.91-14.19-4.17-20.69-6.18v85.71c-3.52.42-7.11.78-10.73,1.1,0-14.71,0-29.42.06-44.2,0-2.39-.74-3.52-3.1-4.11-2.65-.74-6.37-1.23-8.92-1.88V6.11c8.24-2.04,16.42-4.04,24.64-6.05.55-.13,1.26-.06,1.71.16,5.76,2.94,11.48,5.92,17.04,9.25Z"/><path class="cls-3" d="M189.13,36.54c-5.01-1.52-10.02-3.07-15.13-4.66-1.49-.45-3.01-.91-4.53-1.36v50.86c-7.63,2.04-15.58,3.78-23.86,5.21.03-18.85.03-40.16,0-51.31,0-1.88.61-2.55,2.39-2.97,7.27-1.68,13.74-3.49,21.02-5.21.87-.19,2.04-.16,2.81.23,5.85,2.94,11.61,5.95,17.3,9.21Z"/><path class="cls-3" d="M39.17,86.84c-7.63-1.39-14.9-3.07-21.79-5.08,2.97-2.65,5.33-5.95,7.15-9.83,3.14,6.76,7.99,11.7,14.65,14.9Z"/><path class="cls-3" d="M224.04,58.72c-3.59,2.26-7.44,4.46-11.51,6.53-1.58-1.36-3.36-2.49-5.37-3.39,4.98-2.26,8.67-5.82,11.03-10.64,1.42,2.97,3.39,5.46,5.85,7.5Z"/><path class="cls-3" d="M40.04,107.57l-.03.03v-.03h.03Z"/><polygon class="cls-3" points="191.01 41.84 191.01 47.14 174 42 174 36.64 191.01 41.84"/><polygon class="cls-3" points="191.01 51.96 191.01 57.26 174 52.12 174 46.76 191.01 51.96"/><polygon class="cls-3" points="191.01 62.08 191.01 67.38 174 62.24 174 56.88 191.01 62.08"/><polygon class="cls-3" points="191.01 72.2 191.01 77.5 174 72.36 174 67 191.01 72.2"/><path class="cls-3" d="M179.05,78.67c-1.65.52-3.33,1-5.04,1.45v-3.01l5.04,1.55Z"/></g></svg>